#!OML:ASF E:/inclinewalkrobotboard/Project1/Captureday1/Session1/subject1.ASF
:FULLY-SPECIFIED
:DEGREES
288
root 0 0 0 -2.157588554771742 -4.7668271779297555 -5.985212144030877
lowerback 10.481752321393456 1.9607349473730902 4.894710321915372
upperback 0.49132753144976515 3.2633287453240927 1.6872881700191797
thorax -5.23579802178635 1.5176757274662929 -1.4307315986104179
lowerneck -17.000088289192973 -3.222741524249541 -1.608832099412524
upperneck 19.21588791820342 -4.160337456171143 0.6203877520117107
head 8.890656299656001 -1.9905254844487352 -0.051210771770232366
rclavicle -4.940898320442791E-16 -3.0703844778932306E-16
rhumerus -28.80687520191064 -17.747334895003895 -78.01192714586556
rradius 26.921617980295796
rwrist 4.4396288771349015
rhand -17.721460822248112 22.291850216007123
rfingers 7.1250200000000214
rthumb 8.531461863701624 -7.521691142427866
lclavicle -6.697690952856386E-16 -1.9711407481644678E-16
lhumerus -30.102281539074465 -1.7577983690989676 82.28254637007437
lradius 32.78496028479623
lwrist 5.717262384566611
lhand -25.481936684377953 23.960670387087816
lfingers 7.123748078720653
lthumb 1.0319726075200535 53.54302571723911
rfemur -2.96565234284634 7.601007065318708 31.059858048496157
rtibia 27.065875801436142
rfoot -14.187699166091296 -5.9488142600951175
rtoes 2.3692422912087565
lfemur -18.071806150585463 -1.2799681166024401 -14.75450040186733
ltibia 39.5215960909179
lfoot -3.927741977706651 -1.7590948137766826
ltoes -3.7146271240813995
289
root 0 0 0 -2.1681145111498266 -4.795133178053847 -5.9094303251512885
lowerback 10.477340814947054 1.9375537589370295 4.812655458219839
upperback 0.5043318624276414 3.222925115090388 1.6743205929430918
thorax -5.220479470164751 1.4990707413688749 -1.3932586513916554
lowerneck -16.9383418659119 -3.2167944271937694 -1.637685080333167
upperneck 19.178581886691433 -4.152842073400077 0.6523648387078973
head 8.86967158269518 -1.988122219936174 -0.03400390327357039
rclavicle -4.825596417117715E-16 -3.1459348595479456E-16
rhumerus -28.966169148070765 -17.894540876279812 -78.04517960031116
rradius 26.77683933038177
rwrist 4.406377033891744
rhand -17.69502400582179 22.40719004826516
rfingers 7.125020000000023
rthumb 8.555677910536584 -7.408492760810301
lclavicle -6.626317067390849E-16 -1.9795578531446228E-16
lhumerus -30.176708471646673 -1.6710948715915315 82.28544043205625
lradius 32.619340611613275
lwrist 5.699633770641547
lhand -25.530743281913637 23.930572472247484
lfingers 7.1238058307313015
lthumb 0.9859434498189028 53.530627607052125
rfemur -3.8326884448428302 7.251958514391021 30.580607622319285
rtibia 29.01989439806534
rfoot -13.286184411835485 -5.864187397775027
rtoes 2.762838432568887
lfemur -15.714972662607114 -1.6939854897473343 -16.10881427344227
ltibia 35.961379871327495
lfoot -5.817894564334088 -0.9533046452226994
ltoes -3.4936285137746883
290
root 0 0 0 -2.178479314063421 -4.8051415946678 -5.833836973692782
lowerback 10.473227102972603 1.9121171030642468 4.730082892441524
upperback 0.5146997535264641 3.179539359843025 1.6639264554702549
thorax -5.2079813134681 1.4791569805623863 -1.3524257266095576
lowerneck -16.888989707987967 -3.210331622135373 -1.6619371092811264
upperneck 19.15046167692187 -4.143952709367827 0.6768251472214644
head 8.853161197694114 -1.9851365904520943 -0.020227781878174422
rclavicle -4.726977451675856E-16 -3.1934022638613998E-16
rhumerus -29.08529866368226 -18.005033687448282 -78.06903588836549
rradius 26.670237571639287
rwrist 4.381641486332336
rhand -17.67567054837769 22.493079236352845
rfingers 7.125020000000024
rthumb 8.573531444759723 -7.324270382639778
lclavicle -6.588395976320797E-16 -1.9588298205077832E-16
lhumerus -30.20854035032495 -1.62697308812119 82.28447134895579
lradius 32.541124601289944
lwrist 5.691961770932398
lhand -25.554948426319804 23.917607721168842
lfingers 7.123853560717683
lthumb 0.9635317053006673 53.52589457211658
rfemur -5.023914322265506 6.7095271683861295 29.976434657949504
rtibia 31.917220241205378
rfoot -11.91578545754796 -5.695513469317941
rtoes 3.4549484345251846
lfemur -12.688149703285012 -2.1699662469639183 -17.809724807355767
ltibia 31.798144747411058
lfoot -8.074273160337988 -0.07270241867024652
ltoes -3.2770051240949485
291
root 0 0 0 -2.1899411612860584 -4.811777150580593 -5.74990060167391
lowerback 10.468604373266125 1.8835033431994272 4.637962818089909
upperback 0.5254148169239268 3.130792303295446 1.6529497784430243
thorax -5.194837143972698 1.4567992365982998 -1.3062519730106366
lowerneck -16.837602543134814 -3.2032385478219982 -1.6877277520417895
upperneck 19.12166938692984 -4.134139578305002 0.7023462472049102
head 8.83595819153113 -1.9818482516943088 -0.005720379611942938
rclavicle -4.647100103061717E-16 -3.216432103804024E-16
rhumerus -29.162304993343398 -18.07814648608204 -78.08328990335761
rradius 26.60191469326748
rwrist 4.365482233178335
rhand -17.663849953181852 22.54869658745541
rfingers 7.125020000000025
rthumb 8.584784948585977 -7.269791420257352
lclavicle -6.555454353277358E-16 -1.9170888189359238E-16
lhumerus -30.217029728772612 -1.6058465098909167 82.28136252343955
lradius 32.51064000787005
lwrist 5.689539420458772
lhand -25.5661525650511 23.913829671488223
lfingers 7.123897129353413
lthumb 0.9535141995025747 53.525644997308795
rfemur -6.599776704007004 6.010122344532245 29.190652740824525
rtibia 35.58622346362028
rfoot -10.148594515377393 -5.489899100257459
rtoes 4.324688125155661
lfemur -8.959519768592676 -2.73115536245853 -19.88783446034163
ltibia 26.82542217175802
lfoot -10.833009354344071 0.988230341128526
ltoes -3.048745424853018
